# xmcd CD database file
#
# Track frame offsets:
#	150
#	11598
#	25104
#	37155
#	50366
#	63531
#	77033
#	90511
#	103596
#	116250
#	127895
#	141060
#	155158
#	169004
#	182262
#	195798
#	208715
#	222265
#	236652
#	250273
#	262499
#	276126
#	289652
#	303154
#
# Disc length: 4216 seconds
#
# Revision: 3
# Processed by: cddbd v1.5.2PL0 Copyright (c) Steve Scherf et al.
# Submitted via: CDex 1.51
#
DISCID=4d107618
DTITLE=Slam Stewart - The Ultimate Jazz Archive 22 - Swing to BeBop Modern Jazz
DYEAR=1945
DGENRE=Jazz
TTITLE0=Slam Stewart Trio - Hop, Skip And Jump
TTITLE1=Slam Stewart Trio - Sherry Lynn Flip
TTITLE2=Slam Stewart Trio - Three Blind Mice
TTITLE3=Slam Stewart Trio - Blue, Brown And Beige
TTITLE4=Slam Stewart Quartet - Play Fiddle Play
TTITLE5=Slam Stewart Quartet - Dark Eyes
TTITLE6=Slam Stewart Quartet - Laff Slam Slam (Laff Slam Laff)
TTITLE7=Slam Stewart Quartet - Jumpin' At The Deuces
TTITLE8=Slam Stewart - Haw Haw
TTITLE9=Slam Stewart - Dozin'
TTITLE10=Slam Stewart - Talkin' Back
TTITLE11=Slam Stewart - The One That Got Away (Three Feathers)
TTITLE12=Slam Stewart Quintet - Honeysuckle Rose
TTITLE13=Slam Stewart Quintet - Mood To Be Stewed
TTITLE14=Slam Stewart Quintet - Voice Of The Turtle
TTITLE15=Slam Stewart Quintet - Slammin' The Gate
TTITLE16=Slam Stewart Quintet - Jingle Bell
TTITLE17=Slam Stewart Quintet - On The Upside Looking Down
TTITLE18=Slam Stewart Quintet - Time On My Hands
TTITLE19=Slam Stewart Quintet - Bell For Norvo
TTITLE20=Slam Stewart And The Jazz Tones - Oh Me, Oh My, Oh Gosh
TTITLE21=Slam Stewart And The Jazz Tones - Doctor Foo
TTITLE22=Slam Stewart And The Jazz Tones - Blues Collins
TTITLE23=Slam Stewart And The Jazz Tones - Coppin' Out
EXTD=YEAR: 1945
EXTT0=
EXTT1=
EXTT2=
EXTT3=
EXTT4=
EXTT5=
EXTT6=
EXTT7=
EXTT8=
EXTT9=
EXTT10=
EXTT11=
EXTT12=
EXTT13=
EXTT14=
EXTT15=
EXTT16=
EXTT17=
EXTT18=
EXTT19=
EXTT20=
EXTT21=
EXTT22=
EXTT23=
PLAYORDER=
